<svg xmlns="http://www.w3.org/2000/svg" viewBox="0 0 256 256">
  <circle cx="128" cy="128" r="120" fill="#FFD93D"/>
  <circle cx="90" cy="100" r="12" fill="#2D3436"/>
  <circle cx="166" cy="100" r="12" fill="#2D3436"/>
  <path d="M 80 140 Q 128 180 176 140" stroke="#2D3436" stroke-width="8" fill="none" stroke-linecap="round"/>
  <path d="M 90 150 Q 100 165 110 150" stroke="#E74C3C" stroke-width="6" fill="none" stroke-linecap="round"/>
  <path d="M 105 152 Q 115 165 125 152" stroke="#F39C12" stroke-width="6" fill="none" stroke-linecap="round"/>
  <path d="M 120 154 Q 128 165 136 154" stroke="#F1C40F" stroke-width="6" fill="none" stroke-linecap="round"/>
  <path d="M 131 154 Q 141 165 151 154" stroke="#2ECC71" stroke-width="6" fill="none" stroke-linecap="round"/>
  <path d="M 146 152 Q 156 165 166 152" stroke="#3498DB" stroke-width="6" fill="none" stroke-linecap="round"/>
  <path d="M 161 150 Q 169 162 177 150" stroke="#9B59B6" stroke-width="6" fill="none" stroke-linecap="round"/>
  <polygon points="40,60 45,75 35,75" fill="#FF6B9D"/>
  <polygon points="216,60 221,75 211,75" fill="#FF6B9D"/>
  <polygon points="50,180 55,195 45,195" fill="#4ECDC4"/>
  <polygon points="206,180 211,195 201,195" fill="#4ECDC4"/>
  <circle cx="35" cy="70" r="4" fill="#FFE66D"/>
  <circle cx="221" cy="70" r="4" fill="#FFE66D"/>
  <circle cx="45" cy="190" r="4" fill="#FFE66D"/>
  <circle cx="211" cy="190" r="4" fill="#FFE66D"/>
</svg>